<?xml version="1.0" encoding="UTF-8"?>
<svg id="Layer_1" data-name="Layer 1" xmlns="http://www.w3.org/2000/svg" xmlns:xlink="http://www.w3.org/1999/xlink" viewBox="0 0 629.69 240.53">
  <defs>
    <style>
      .cls-1 {
        fill: url(#linear-gradient-19);
        stroke: url(#linear-gradient-20);
      }

      .cls-1, .cls-2, .cls-3, .cls-4, .cls-5, .cls-6, .cls-7, .cls-8, .cls-9, .cls-10, .cls-11 {
        stroke-miterlimit: 10;
      }

      .cls-2 {
        fill: url(#linear-gradient-7);
        stroke: url(#linear-gradient-8);
      }

      .cls-3 {
        fill: url(#linear-gradient-9);
        stroke: url(#linear-gradient-10);
      }

      .cls-4 {
        fill: url(#linear-gradient-11);
        stroke: url(#linear-gradient-12);
      }

      .cls-5 {
        fill: url(#linear-gradient-15);
        stroke: url(#linear-gradient-16);
      }

      .cls-6 {
        fill: url(#linear-gradient-17);
        stroke: url(#linear-gradient-18);
      }

      .cls-7 {
        fill: url(#linear-gradient);
        stroke: url(#linear-gradient-2);
      }

      .cls-8 {
        fill: url(#linear-gradient-21);
        stroke: url(#linear-gradient-22);
      }

      .cls-9 {
        fill: url(#linear-gradient-3);
        stroke: url(#linear-gradient-4);
      }

      .cls-10 {
        fill: url(#linear-gradient-5);
        stroke: url(#linear-gradient-6);
      }

      .cls-11 {
        fill: url(#linear-gradient-13);
        stroke: url(#linear-gradient-14);
      }
    </style>
    <linearGradient id="linear-gradient" x1="597.32" y1="94.45" x2="597.82" y2="94.45" gradientUnits="userSpaceOnUse">
      <stop offset="0" stop-color="#de6f00"/>
      <stop offset=".48" stop-color="#e28e41"/>
      <stop offset=".54" stop-color="#e28b3c"/>
      <stop offset=".96" stop-color="#de6f00"/>
    </linearGradient>
    <linearGradient id="linear-gradient-2" x1="143.74" y1="94.45" x2="351.43" y2="94.45" gradientUnits="userSpaceOnUse">
      <stop offset="0" stop-color="#da7108"/>
      <stop offset=".46" stop-color="#e28b3b"/>
      <stop offset="1" stop-color="#de7100"/>
    </linearGradient>
    <linearGradient id="linear-gradient-3" y1="93.6" y2="93.6" xlink:href="#linear-gradient"/>
    <linearGradient id="linear-gradient-4" x1="0" y1="93.6" x2="135.63" y2="93.6" xlink:href="#linear-gradient-2"/>
    <linearGradient id="linear-gradient-5" y1="94.82" y2="94.82" xlink:href="#linear-gradient"/>
    <linearGradient id="linear-gradient-6" x1="447.11" y1="94.82" x2="629.69" y2="94.82" xlink:href="#linear-gradient-2"/>
    <linearGradient id="linear-gradient-7" y1="95.94" y2="95.94" xlink:href="#linear-gradient"/>
    <linearGradient id="linear-gradient-8" x1="367.23" y1="95.94" x2="433.09" y2="95.94" xlink:href="#linear-gradient-2"/>
    <linearGradient id="linear-gradient-9" y1="224.75" y2="224.75" xlink:href="#linear-gradient"/>
    <linearGradient id="linear-gradient-10" x1="149.21" y1="224.75" x2="172.79" y2="224.75" xlink:href="#linear-gradient-2"/>
    <linearGradient id="linear-gradient-11" y1="224.71" y2="224.71" xlink:href="#linear-gradient"/>
    <linearGradient id="linear-gradient-12" x1="323.02" y1="224.7" x2="346.78" y2="224.7" xlink:href="#linear-gradient-2"/>
    <linearGradient id="linear-gradient-13" y1="224.45" y2="224.45" xlink:href="#linear-gradient"/>
    <linearGradient id="linear-gradient-14" x1="200.76" y1="224.45" x2="224.64" y2="224.45" xlink:href="#linear-gradient-2"/>
    <linearGradient id="linear-gradient-15" y1="224.48" y2="224.48" xlink:href="#linear-gradient"/>
    <linearGradient id="linear-gradient-16" x1="175.95" y1="224.48" x2="196.59" y2="224.48" xlink:href="#linear-gradient-2"/>
    <linearGradient id="linear-gradient-17" y1="224.7" y2="224.7" xlink:href="#linear-gradient"/>
    <linearGradient id="linear-gradient-18" x1="292.49" y1="224.7" x2="320.73" y2="224.7" xlink:href="#linear-gradient-2"/>
    <linearGradient id="linear-gradient-19" y1="224.56" y2="224.56" xlink:href="#linear-gradient"/>
    <linearGradient id="linear-gradient-20" x1="264.35" y1="224.56" x2="291.05" y2="224.56" xlink:href="#linear-gradient-2"/>
    <linearGradient id="linear-gradient-21" y1="224.59" y2="224.59" xlink:href="#linear-gradient"/>
    <linearGradient id="linear-gradient-22" x1="227.13" y1="224.59" x2="251.25" y2="224.59" xlink:href="#linear-gradient-2"/>
  </defs>
  <g>
    <g>
      <path class="cls-7" d="M242.98,186.48l-50.72-.04,43.98-43.53,68.7-67.15c.23-1.33.18-2.74-.4-3.35s-3.04-.33-3.71.26l-7.59,6.53-54.55,55.16-14.27,13.81c-11.03,10.67-26.01,15.19-41.07,11.92-18.77-4.09-34.44-17.65-38.5-36.78l-.56-9.53c-.69-11.89,4.73-23.96,12.85-32.88l11.44-12.56,50.96-51.13,9.92-8.67c3.74-5.48,8.43-6.11,14.33-6.08l51.75.28-48.2,48.31-10.11,10.12-49.77,49.8c-.2,1.46.87,3.93,1.85,4.67s3.83.29,4.81-.51l6.27-5.14,67.12-66.48c18.81-18.63,48.9-21.43,67.79-3.31,8.32,7.97,15.86,17.46,15.62,29.45l-.26,12.81c-1.78,10.1-6.44,19.89-13.82,27.31l-62.77,63.05c-8.57,8.61-18.26,13.72-31.09,13.71Z"/>
      <path class="cls-9" d="M4.84,166.6l33.33-24.76,14.1-10.64,18.53-13.68,29.11-22.93,4.4-7.45c5.09-8.62,9.32-21.85,7.66-29.9-1.93-9.34-5.14-18.89-12.65-24.96-6.62-5.35-13.78-9.35-22.16-10.89-29.62-5.45-46.3,6.77-55.54,34.79-1.78,5.4-7.5,7.68-11.84,6.14-5.02-1.78-8.6-5.82-7.3-11.95,1.91-9.04,4.7-19.06,10.66-26.44C22.96,11.75,37.62,5.01,52.68,2.21c24.33-4.51,49.2,3.44,64.95,22.59,7.2,8.75,11.46,19.62,13.62,30.69,3.14,16.12-2.83,35.41-14.34,47.21l-9.43,9.67-4.8,4.01-24.64,19.54-29.95,20.81c-5.35,3.72-10.52,6.53-15.98,11.58l92.63.19c3.14,0,5.69.02,7.65,1.82s2.58,3.97,2.72,7.41c.15,3.71-2.59,8.49-7.64,8.48l-117.33-.08c-4.27,0-8.23-4.72-9.16-7.53-1.37-4.14.22-9.32,3.85-12.02Z"/>
    </g>
    <g>
      <path class="cls-10" d="M607.77,48.69c-2.84,2.27-4.35,4.43-6.32,7.53l-27.63,43.33-6.18,9.54-13.75,21.56-8.05,10.91c-3.5,4.74-10.13,5.64-14.31,1.3-5.19-5.39-8.13-12.03-12.28-18.07l-3.96-5.78-9.87-15.11-5.87-9.1-6.89-10.24-7.89-12.02-8.67-14.24c-1.96-3.22-3.1-6.64-7.03-8.69l-.02,130.91-4.35,5.13c-1.21,1.42-3.87,3.25-5.47,3.47-4.46.6-11.62-5.55-11.61-14.66l.12-163.22c0-5.22,4.27-9.83,7.77-10.51,4.84-.95,8.43,1.76,11.4,5.92l5.36,7.53,11.64,18.46,9.51,14.49,6.54,9.58,19.32,30.51,18.82,30.25,3.97-5.41,5.49-8.66,6.62-10.42,34.37-53.56,15.51-24.55c3.43-5.43,6.44-11.96,13.32-14.08,5.37-1.65,11.83,4.7,11.83,10.9l-.1,168.43c0,2.95-3.32,6.51-5.11,7.69-3.68,2.43-12.21.45-14.03-3.76-1.34-3.09-2.3-5.88-2.29-9.53l.11-117.79v-8.02Z"/>
      <path class="cls-2" d="M411.58,40.01l-3.54,4.6-8.95,13.12-10.26,14.62c-3.28,4.68-5.54,7.21-12.4,6.52-3.6-.37-6.75-2.22-8.11-6.11-1.17-3.34-.59-6.56,1.79-9.83l10.96-15.08,24.69-33.41c3.4-4.61,6.48-9.76,12.15-11.71,7.07-2.44,14.68,5.96,14.68,12.98l-.05,164.68c0,3.23-2.81,6.79-4.67,8.07-2.11,1.44-6.36,1.46-9.11.44-4.9-1.81-6.25-6.43-6.24-11.38l.18-91.84.16-38.19c0-1.99-.57-4.68-1.26-7.48Z"/>
    </g>
  </g>
  <g>
    <path class="cls-3" d="M167.38,237.51l-5.34-9.43c-.98-1.74-5.97-1.89-8.08-1.27l-.23,10.44c-.01.65-1.19,2.56-1.63,2.25l-2.39-1.71.06-27.82h14.54c3.72,0,6.38,4.01,6.69,7.09.37,3.62-1.96,6.97-5.74,8.51l6.84,12.68-2.68,1.25c-.48.22-1.64-1.28-2.04-1.98ZM165.08,221.8c1.91-.16,2.02-6.78.21-7.44-3.93-1.44-6.83-1.6-11.13-1.49l-.38,9.85,11.31-.92Z"/>
    <path class="cls-4" d="M346.08,238.64c-8.63,3.7-4.88-14.96-18.5-11.81l-.42,9.52c-.03.63-.86,2.41-1.16,2.9-.41.65-2.02-.9-2.48-1.67v-27.56s15.43.22,15.43.22c3.54.05,5.92,4.74,5.86,7.71-.07,3.38-2.61,6.44-5.74,7.74l7.01,12.96ZM338.56,221.78c2.87-1.05,2.27-7.01-.07-7.75-3.67-1.16-6.83-1.1-10.86-.77l-.48,9.09c3.89.38,7.89.72,11.41-.57Z"/>
    <path class="cls-11" d="M224.14,236.03c0,.96-.73,2.77-1.14,3.17-.53.54-3.01-.03-3.55-.84l-13.96-21.16-.5,19.83c-.02.67-1.27,2.17-1.71,2.51s-2.03-1.8-2.03-2.5v-24.37c0-.87,1.28-3.08,2.04-3.04s2.47.9,2.97,1.65l13.78,20.84.49-20.05c.02-.81,1.29-2.36,1.77-2.71s1.75,1.81,1.75,2.58l.08,24.08Z"/>
    <path class="cls-5" d="M194.28,225.54l-13.52.22v9.85s12.75-.02,12.75-.02c.66,0,2.16,1.12,2.51,1.58.46.61-1.54,2.37-2.48,2.35l-17.08-.37.03-29.21,16.35-.5c.88-.03,2.31,2.41,2.07,3.34l-13.97.33-.17,9.36,11.8-.32,1.72,3.39Z"/>
    <path class="cls-6" d="M312.54,230.51h-12.34s-3.2,7.85-3.2,7.85c-.15.36-1.41,1.41-1.72,1.22l-2.18-1.37,10.27-27.1c.53-1.4,4.73-1.83,5.27-.51l11.41,27.88-2.66.9c-.68.23-2.07-1.4-2.34-2.12l-2.52-6.76ZM310.97,227.03l-4.95-13.59-4.34,13.64,9.28-.05Z"/>
    <path class="cls-1" d="M270.13,230.73c1.35,3.77,5.24,5.55,8.19,5.7,7.77.39,7.13-6.97,10.94-7.33.84-.08,1.6,2.49,1.16,3.45-2.48,5.45-9.58,8.84-15.79,6.97s-9.75-7.65-9.79-15.01c-.03-6.5,2.97-12.28,8.28-14.35,6.12-2.38,13.01-.71,16.36,4.52.54.85.37,3.22-.34,3.61-3.68,2.01-2.24-6.8-12.71-5.45-6.43.83-9.13,10-6.31,17.9Z"/>
    <path class="cls-8" d="M241.38,237.21c0,.57-1.56,2.03-2.03,2.31s-1.98-1.8-1.98-2.55l-.04-23.15-6.43-1.07-3.1-.52c-.63-.11.8-2.2,1.41-2.6h19.09c.54,0,1.95.61,2.29.81.51.3-.3,2.35-.89,2.4l-8.22.71-.1,23.66Z"/>
  </g>
</svg>
